<?xml version="1.0" encoding="utf-8"?>
<!-- Generator: Adobe Illustrator 21.0.0, SVG Export Plug-In . SVG Version: 6.00 Build 0)  -->
<svg version="1.1" id="Ebene_1" xmlns="http://www.w3.org/2000/svg" xmlns:xlink="http://www.w3.org/1999/xlink" x="0px" y="0px"
	 viewBox="0 0 286.9 129.4" style="enable-background:new 0 0 286.9 129.4;" xml:space="preserve">
<style type="text/css">
	.st0{fill:#00B0E9;}
</style>
<g>
	<g>
		<g>
			<g>
				<rect x="149" y="3.6" class="st0" width="8.8" height="45.3"/>
				<path class="st0" d="M178.7,27.8c-0.7,0.3-1.9,0.6-3.5,0.8l-3,0.4c-3.4,0.4-6,1.1-7.7,2.2c-3.2,1.8-4.8,4.8-4.8,8.9
					c0,3.2,1,5.6,3,7.4c2,1.7,4.5,2.6,7.6,2.6c2.4,0,4.5-0.5,6.4-1.6c1.6-0.9,3-2,4.2-3.3c0.1,0.8,0.1,1.4,0.2,2
					c0.1,0.6,0.3,1.2,0.6,1.9h9.5v-1.3c-0.6-0.3-1-0.6-1.3-1c-0.3-0.4-0.5-1.2-0.5-2.3c0-1.5-0.1-2.8-0.1-3.9V25
					c0-4-1.4-6.8-4.3-8.2c-2.9-1.5-6.1-2.2-9.8-2.2c-5.7,0-9.6,1.5-12,4.4c-1.5,1.9-2.3,4.3-2.5,7.2h8.5c0.2-1.3,0.6-2.3,1.2-3.1
					c0.9-1,2.4-1.5,4.5-1.5c1.9,0,3.3,0.3,4.3,0.8c1,0.5,1.4,1.5,1.4,2.8C180.6,26.4,179.9,27.2,178.7,27.8z M180.5,35.9
					c-0.1,2.9-0.9,4.9-2.5,6.1c-1.6,1.1-3.4,1.7-5.3,1.7c-1.2,0-2.2-0.3-3.1-1c-0.8-0.7-1.3-1.7-1.3-3.2c0-1.7,0.7-2.9,2.1-3.7
					c0.8-0.5,2.2-0.9,4-1.2l2-0.4c1-0.2,1.8-0.4,2.4-0.6c0.6-0.2,1.1-0.5,1.7-0.8V35.9z"/>
				<path class="st0" d="M200.8,30.8c0-2.1,0.3-3.8,0.9-5.1c1.1-2.5,3.1-3.8,6.1-3.8c2.4,0,4,0.9,4.9,2.6c0.5,0.9,0.7,2.3,0.7,4.1
					v20.4h9V26.4c0-4.2-1.1-7.2-3.3-9c-2.2-1.8-5-2.7-8.5-2.7c-2.8,0-5,0.7-6.8,2c-1,0.8-2.1,2-3.2,3.7v-4.9H192v33.4h8.8V30.8z"/>
				<path class="st0" d="M143.4,68.2c-1.7-1.4-4.3-2.5-7.8-3.3l-7.9-1.9c-3.1-0.7-5.1-1.3-6-1.9c-1.5-0.8-2.2-2-2.2-3.6
					c0-1.8,0.7-3.1,2.2-4.1c1.5-1,3.5-1.5,6-1.5c2.2,0,4.1,0.4,5.6,1.1c2.3,1.1,3.5,3.1,3.7,5.8h9.1c-0.2-4.8-2-8.5-5.4-11
					c-3.4-2.5-7.5-3.8-12.4-3.8c-2,0-3.9,0.2-5.6,0.5V32.6h9.4c4.9,0,8.7-1.1,11.4-3.3c2.7-2.2,4-6,4-11.3c0-4.9-1.3-8.5-4-10.8
					c-2.7-2.3-6.2-3.5-10.7-3.5h-19.4V50c-1.8,2.3-2.6,5-2.6,8.1c0,4.4,1.5,7.7,4.6,9.8c1.8,1.2,5.1,2.4,9.9,3.5l4.9,1.1
					c2.9,0.6,5,1.3,6.3,2.1c1.3,0.8,2,2,2,3.5c0,2.6-1.3,4.3-4,5.3c-1.4,0.5-3.3,0.7-5.6,0.7c-3.8,0-6.5-0.9-8.1-2.8
					c-0.9-1-1.4-2.6-1.7-4.6h-9c0,4.7,1.7,8.4,5.1,11.1c3.4,2.7,8.1,4,14.1,4c5.8,0,10.4-1.4,13.6-4.1c3.2-2.7,4.8-6.2,4.8-10.3
					C147.5,73.4,146.1,70.3,143.4,68.2z M122.7,11.5h8.5c2.2,0,3.8,0.5,5,1.5c1.2,1,1.8,2.7,1.8,5c0,2.4-0.6,4.1-1.8,5.2
					c-1.2,1.1-2.9,1.6-5,1.6h-8.5V11.5z"/>
				<path class="st0" d="M177.5,87c2.7-3.1,4-7.6,4-13.5c0-5.6-1.4-9.8-4.1-12.7c-2.7-2.9-6.1-4.3-10-4.3c-2.7,0-5,0.7-7,2.2
					c-1.1,0.8-2.1,2-3,3.4v-4.9H149v46.7h8.7V86.4c0.9,1.4,1.9,2.5,2.8,3.2c1.8,1.3,4,2,6.7,2C171.4,91.6,174.9,90.1,177.5,87z
					 M160.5,82.9c-2.1-1.6-3.1-4.3-3.1-8.2c0-2.5,0.3-4.5,0.9-6.1c1.2-3,3.4-4.5,6.6-4.5c2.7,0,4.6,1,5.8,3c1.2,2,1.8,4.3,1.8,6.9
					c0,3.1-0.6,5.6-1.9,7.5c-1.3,1.9-3.2,2.8-5.6,2.8C163.2,84.3,161.7,83.8,160.5,82.9z"/>
				<path class="st0" d="M212.6,61.4c-2.7-3.5-6.9-5.3-12.5-5.3c-5.6,0-9.8,1.8-12.5,5.3c-2.7,3.5-4.1,7.7-4.1,12.6
					c0,4.9,1.4,9.1,4.1,12.6c2.7,3.5,6.9,5.2,12.5,5.2c5.6,0,9.8-1.7,12.5-5.2c2.7-3.5,4.1-7.7,4.1-12.6
					C216.7,69.1,215.4,64.9,212.6,61.4z M205.8,81.7c-1.3,1.8-3.2,2.7-5.7,2.7c-2.5,0-4.4-0.9-5.7-2.7c-1.3-1.8-2-4.4-2-7.8
					c0-3.4,0.7-5.9,2-7.7c1.3-1.8,3.3-2.7,5.7-2.7c2.5,0,4.4,0.9,5.7,2.7c1.3,1.8,2,4.4,2,7.7C207.8,77.3,207.1,79.9,205.8,81.7z"/>
				<path class="st0" d="M254,84.5c-1.8,0-2.8-0.2-3.2-0.5c-0.3-0.3-0.5-1.2-0.5-2.6V64.2h5.4v-6.7h-5.4v-9.8
					c1.1-0.7,2.2-1.5,3.1-2.5c1.9-2,3-4.1,3.2-6.1h-8.9c-0.5,1-1.1,1.8-1.8,2.3c-1.2,1-2.9,1.5-4.9,1.5c-1.9,0-3.5-0.4-4.8-1.3
					c-2.2-1.4-3.4-3.7-3.5-7.1H257c0-2.9-0.1-5.1-0.3-6.6c-0.3-2-0.9-3.9-1.8-5.5h4.2v20.1c0,2.1,0.5,3.6,1.5,4.6
					c1.5,1.6,4.3,2.3,8.5,2.2l4.1-0.2v-6.5c-0.3,0-0.6,0-0.9,0c-0.3,0-0.6,0-0.8,0c-1.8,0-2.8-0.2-3.2-0.5c-0.3-0.3-0.5-1.2-0.5-2.6
					V22.5h5.4v-6.7h-5.4V6.4h-8.7v9.3h-4.7v6c-0.1-0.2-0.3-0.5-0.4-0.7c-1.5-2.3-3.5-3.9-5.8-5c-2.3-1-5-1.6-7.9-1.6
					c-4.9,0-8.9,1.5-12,4.6c-3.1,3.1-4.6,7.5-4.6,13.3c0,6.2,1.7,10.7,5.1,13.4c3.4,2.7,7.3,4.1,11.8,4.1c0.3,0,0.6,0,0.9,0v7.4
					h-4.7v0c-2.6,0-4.2-0.1-6.3,1.3c-1.1,0.7-2.2,1.9-3.4,4.2v-5.8h-8.4v33.5h8.8v-16c0-2.7,0.3-4.7,1-6c1.2-2.3,2.5-3.9,6.3-4.2
					c1.2-0.1,2.7-0.2,3.3-0.2h3.2v20.1c0,2.1,0.5,3.6,1.5,4.6c1.5,1.6,4.3,2.3,8.5,2.2l4.1-0.2v-6.5c-0.3,0-0.6,0-0.9,0
					C254.5,84.5,254.2,84.5,254,84.5z M235.2,23.7c1.2-1.3,3-1.9,5.2-1.9c2.1,0,3.8,0.6,5.2,1.8c1.4,1.2,2.2,3,2.3,5.3h-15.1
					C233.2,26.7,233.9,24.9,235.2,23.7z"/>
				<path class="st0" d="M276.5,70.5c-5.2-1.1-8.3-2-9.1-2.4c-0.9-0.5-1.3-1.2-1.3-2.2c0-0.8,0.4-1.5,1.2-2.1
					c0.8-0.6,2.2-0.9,4.1-0.9c2.3,0,4,0.6,4.9,1.8c0.5,0.7,0.8,1.5,1,2.7h8.8c-0.4-4.1-1.9-7-4.5-8.6c-2.6-1.7-6.1-2.5-10.2-2.5
					c-4.4,0-7.8,1.1-10.3,3.3c-2.4,2.2-3.6,4.9-3.6,8c0,2.6,0.8,4.6,2.3,6c1.6,1.4,4.2,2.6,8,3.5c5.3,1.3,8.3,2.1,9.2,2.6
					c0.8,0.5,1.2,1.3,1.2,2.2c0,1-0.5,1.8-1.5,2.3c-1,0.5-2.4,0.8-4.1,0.8c-2.9,0-5-0.6-6.1-1.8c-0.6-0.7-1-1.8-1.2-3.3h-8.9
					c0,3.4,1.3,6.3,3.8,8.5c2.5,2.2,6.4,3.3,11.7,3.3c5.2,0,9-1,11.5-3.2c2.5-2.1,3.7-4.8,3.7-8.1c0-2.5-0.9-4.6-2.6-6.3
					C282.6,72.5,280,71.3,276.5,70.5z"/>
			</g>
			<path class="st0" d="M70.3,42.3C85.7,39,90.2,28,88,17.3l-0.2-1C85.5,5.7,76.9-2.5,61.5,0.7L18.2,9.9C2.8,13.2-1.7,24.2,0.6,34.9
				l0.2,1C3,46.6,11.6,54.8,27,51.5l14.5-3.1l0.9,4.1l-14.5,3.1C12.5,58.8,8,69.8,10.3,80.5l0.2,1c2.3,10.7,10.9,18.9,26.3,15.6
				L80,87.9c15.4-3.3,19.9-14.3,17.7-25l-0.2-1c-2.3-10.7-10.9-18.9-26.3-15.6l-14.8,3.1l-0.9-4.1L70.3,42.3z M48.9,82.9l-12.8,2.7
				C29,87.2,25,83.4,23.9,78.4l-0.1-0.5c-1.1-5,1-10.1,8.2-11.6l12.8-2.7L48.9,82.9z M58.9,60.6l12.9-2.7C79,56.3,83,60.1,84,65.1
				l0.1,0.5c1.1,5-1,10.1-8.2,11.6L63,79.9L58.9,60.6z M49.2,14.9l12.9-2.7c7.2-1.5,11.1,2.3,12.2,7.2l0.1,0.5
				c1.1,5-1,10.1-8.2,11.6l-12.9,2.7L49.2,14.9z M39.2,37.3L26.4,40c-7.2,1.5-11.1-2.3-12.2-7.2l-0.1-0.5c-1.1-5,1-10.1,8.2-11.6
				l12.8-2.7L39.2,37.3z"/>
		</g>
	</g>
	<g>
		<path class="st0" d="M23.4,121.8l-7.2-11.9h4.8l4.6,7.7l4.5-7.7h4.8l-7.2,12v7.5h-4.3V121.8z"/>
		<path class="st0" d="M33.2,122.4c0-1.1,0.2-2.1,0.5-3.1c0.3-0.9,0.8-1.7,1.5-2.3c0.6-0.6,1.4-1.1,2.3-1.5c0.9-0.4,1.9-0.5,3-0.5
			c1.1,0,2.1,0.2,3,0.5c0.9,0.4,1.7,0.9,2.3,1.5c0.6,0.6,1.1,1.4,1.5,2.3c0.3,0.9,0.5,1.9,0.5,3.1s-0.2,2.1-0.5,3.1
			c-0.3,0.9-0.8,1.7-1.5,2.3c-0.6,0.6-1.4,1.1-2.3,1.5c-0.9,0.4-1.9,0.5-3,0.5c-1.1,0-2.1-0.2-3-0.5c-0.9-0.4-1.7-0.9-2.3-1.5
			c-0.6-0.6-1.1-1.4-1.5-2.3C33.4,124.5,33.2,123.5,33.2,122.4z M37.1,122.4c0,0.6,0.1,1.1,0.2,1.6c0.1,0.5,0.3,1,0.6,1.4
			c0.3,0.4,0.6,0.8,1,1c0.4,0.3,1,0.4,1.6,0.4c0.7,0,1.2-0.1,1.6-0.4c0.4-0.3,0.8-0.6,1.1-1c0.3-0.4,0.5-0.9,0.6-1.4
			c0.1-0.5,0.2-1.1,0.2-1.6s-0.1-1.1-0.2-1.7c-0.1-0.5-0.3-1-0.6-1.4c-0.3-0.4-0.6-0.8-1.1-1c-0.4-0.3-1-0.4-1.6-0.4
			c-0.7,0-1.2,0.1-1.6,0.4c-0.4,0.3-0.8,0.6-1,1c-0.3,0.4-0.5,0.9-0.6,1.4C37.1,121.2,37.1,121.8,37.1,122.4z"/>
		<path class="st0" d="M63.5,129.4h-3.7v-2h-0.1c-0.5,0.8-1.1,1.4-1.9,1.8c-0.8,0.4-1.6,0.6-2.4,0.6c-1,0-1.9-0.1-2.5-0.4
			c-0.7-0.3-1.2-0.7-1.6-1.2c-0.4-0.5-0.6-1.1-0.8-1.8c-0.2-0.7-0.2-1.5-0.2-2.4v-8.7h3.9v8c0,1.2,0.2,2,0.6,2.6
			c0.4,0.6,1,0.9,1.9,0.9c1.1,0,1.8-0.3,2.3-0.9c0.5-0.6,0.7-1.7,0.7-3.1v-7.4h3.9V129.4z"/>
		<path class="st0" d="M74,115.3h3.7v2h0.1c0.5-0.8,1.1-1.4,1.9-1.8c0.8-0.4,1.6-0.6,2.4-0.6c1,0,1.9,0.1,2.5,0.4
			c0.7,0.3,1.2,0.7,1.6,1.2s0.6,1.1,0.8,1.8c0.2,0.7,0.2,1.5,0.2,2.4v8.7h-3.9v-8c0-1.2-0.2-2-0.6-2.6c-0.4-0.6-1-0.9-1.9-0.9
			c-1.1,0-1.8,0.3-2.3,0.9c-0.5,0.6-0.7,1.7-0.7,3.1v7.4H74V115.3z"/>
		<path class="st0" d="M93.4,123.3c0.1,1.2,0.4,2.1,1,2.7c0.6,0.6,1.4,0.9,2.5,0.9c0.8,0,1.5-0.2,2-0.6c0.6-0.4,0.9-0.8,1-1.2h3.4
			c-0.5,1.7-1.4,2.9-2.5,3.6c-1.1,0.7-2.5,1.1-4.1,1.1c-1.1,0-2.1-0.2-3-0.5s-1.6-0.9-2.3-1.5c-0.6-0.7-1.1-1.4-1.4-2.3
			c-0.3-0.9-0.5-1.9-0.5-3c0-1.1,0.2-2,0.5-2.9c0.3-0.9,0.8-1.7,1.5-2.4c0.6-0.7,1.4-1.2,2.3-1.6c0.9-0.4,1.9-0.6,2.9-0.6
			c1.2,0,2.2,0.2,3.1,0.7c0.9,0.5,1.6,1.1,2.2,1.9s1,1.7,1.2,2.7c0.3,1,0.3,2,0.3,3.1H93.4z M99.7,120.8c-0.2-1-0.5-1.7-1-2.2
			s-1.2-0.8-2.1-0.8c-0.6,0-1.1,0.1-1.5,0.3c-0.4,0.2-0.7,0.5-1,0.8c-0.2,0.3-0.4,0.6-0.5,1c-0.1,0.3-0.2,0.7-0.2,0.9H99.7z"/>
		<path class="st0" d="M113.7,129.4h-4.3l-4.8-14.1h4.1l3,9.6h0.1l3-9.6h3.9L113.7,129.4z"/>
		<path class="st0" d="M123.2,123.3c0.1,1.2,0.4,2.1,1,2.7c0.6,0.6,1.4,0.9,2.5,0.9c0.8,0,1.5-0.2,2-0.6c0.6-0.4,0.9-0.8,1-1.2h3.4
			c-0.5,1.7-1.4,2.9-2.5,3.6c-1.1,0.7-2.5,1.1-4.1,1.1c-1.1,0-2.1-0.2-3-0.5s-1.6-0.9-2.3-1.5c-0.6-0.7-1.1-1.4-1.4-2.3
			c-0.3-0.9-0.5-1.9-0.5-3c0-1.1,0.2-2,0.5-2.9c0.3-0.9,0.8-1.7,1.5-2.4c0.6-0.7,1.4-1.2,2.3-1.6c0.9-0.4,1.9-0.6,2.9-0.6
			c1.2,0,2.2,0.2,3.1,0.7c0.9,0.5,1.6,1.1,2.2,1.9c0.6,0.8,1,1.7,1.2,2.7c0.3,1,0.3,2,0.3,3.1H123.2z M129.5,120.8
			c-0.2-1-0.5-1.7-1-2.2s-1.2-0.8-2.1-0.8c-0.6,0-1.1,0.1-1.5,0.3c-0.4,0.2-0.7,0.5-1,0.8c-0.2,0.3-0.4,0.6-0.5,1
			c-0.1,0.3-0.2,0.7-0.2,0.9H129.5z"/>
		<path class="st0" d="M135.7,115.3h3.7v2.6h0.1c0.2-0.4,0.4-0.8,0.7-1.2c0.3-0.4,0.7-0.7,1.1-1c0.4-0.3,0.8-0.5,1.3-0.6
			c0.5-0.1,0.9-0.2,1.4-0.2c0.3,0,0.6,0,0.8,0.1v3.6c-0.2,0-0.4-0.1-0.7-0.1c-0.3,0-0.5,0-0.7,0c-0.7,0-1.3,0.1-1.8,0.4
			c-0.5,0.2-0.9,0.6-1.2,1c-0.3,0.4-0.5,0.9-0.6,1.4c-0.1,0.6-0.2,1.1-0.2,1.8v6.4h-3.9V115.3z"/>
		<path class="st0" d="M153.9,115.3h3.7v2.6h0.1c0.2-0.4,0.4-0.8,0.7-1.2c0.3-0.4,0.7-0.7,1.1-1c0.4-0.3,0.8-0.5,1.3-0.6
			c0.5-0.1,0.9-0.2,1.4-0.2c0.3,0,0.6,0,0.8,0.1v3.6c-0.2,0-0.4-0.1-0.7-0.1c-0.3,0-0.5,0-0.7,0c-0.7,0-1.3,0.1-1.8,0.4
			c-0.5,0.2-0.9,0.6-1.2,1c-0.3,0.4-0.5,0.9-0.6,1.4c-0.1,0.6-0.2,1.1-0.2,1.8v6.4h-3.9V115.3z"/>
		<path class="st0" d="M168.4,113.1h-3.9v-3.2h3.9V113.1z M164.6,115.3h3.9v14.1h-3.9V115.3z"/>
		<path class="st0" d="M181.5,127.6L181.5,127.6c-0.5,0.8-1.1,1.3-1.9,1.7c-0.7,0.3-1.6,0.5-2.5,0.5c-1.1,0-2-0.2-2.8-0.6
			c-0.8-0.4-1.4-1-2-1.7c-0.5-0.7-0.9-1.5-1.2-2.4c-0.3-0.9-0.4-1.9-0.4-2.8c0-0.9,0.1-1.9,0.4-2.7c0.3-0.9,0.7-1.7,1.2-2.3
			c0.5-0.7,1.2-1.2,1.9-1.6c0.8-0.4,1.7-0.6,2.7-0.6c0.8,0,1.6,0.2,2.4,0.5c0.8,0.4,1.3,0.9,1.8,1.6h0.1v-7.1h3.9v19.5h-3.7V127.6z
			 M181.5,122.3c0-0.6-0.1-1.1-0.2-1.7c-0.1-0.5-0.3-1-0.6-1.4c-0.3-0.4-0.6-0.7-1-1c-0.4-0.3-0.9-0.4-1.6-0.4
			c-0.6,0-1.2,0.1-1.6,0.4c-0.4,0.3-0.8,0.6-1,1c-0.3,0.4-0.5,0.9-0.6,1.4c-0.1,0.5-0.2,1.1-0.2,1.7c0,0.5,0.1,1.1,0.2,1.6
			c0.1,0.5,0.3,1,0.6,1.5c0.3,0.4,0.6,0.8,1.1,1s0.9,0.4,1.5,0.4c0.6,0,1.2-0.1,1.6-0.4c0.4-0.3,0.8-0.6,1-1
			c0.3-0.4,0.4-0.9,0.5-1.5C181.4,123.5,181.5,122.9,181.5,122.3z"/>
		<path class="st0" d="M191.3,123.3c0.1,1.2,0.4,2.1,1,2.7c0.6,0.6,1.4,0.9,2.5,0.9c0.8,0,1.5-0.2,2-0.6c0.6-0.4,0.9-0.8,1-1.2h3.4
			c-0.5,1.7-1.4,2.9-2.5,3.6c-1.1,0.7-2.5,1.1-4.1,1.1c-1.1,0-2.1-0.2-3-0.5c-0.9-0.4-1.6-0.9-2.3-1.5c-0.6-0.7-1.1-1.4-1.4-2.3
			c-0.3-0.9-0.5-1.9-0.5-3c0-1.1,0.2-2,0.5-2.9c0.3-0.9,0.8-1.7,1.5-2.4c0.6-0.7,1.4-1.2,2.3-1.6c0.9-0.4,1.9-0.6,2.9-0.6
			c1.2,0,2.2,0.2,3.1,0.7c0.9,0.5,1.6,1.1,2.2,1.9c0.6,0.8,1,1.7,1.2,2.7s0.3,2,0.3,3.1H191.3z M197.6,120.8c-0.2-1-0.5-1.7-1-2.2
			s-1.2-0.8-2.1-0.8c-0.6,0-1.1,0.1-1.5,0.3c-0.4,0.2-0.7,0.5-1,0.8c-0.2,0.3-0.4,0.6-0.5,1c-0.1,0.3-0.2,0.7-0.2,0.9H197.6z"/>
		<path class="st0" d="M211.2,119.6c0.1-0.9,0.3-1.7,0.7-2.3c0.4-0.6,0.9-1.1,1.5-1.4c0.6-0.4,1.3-0.6,2.1-0.8
			c0.8-0.2,1.5-0.2,2.3-0.2c0.7,0,1.4,0.1,2.2,0.1c0.7,0.1,1.4,0.3,2,0.6c0.6,0.3,1.1,0.7,1.5,1.2c0.4,0.5,0.6,1.2,0.6,2v7.3
			c0,0.6,0,1.2,0.1,1.8c0.1,0.6,0.2,1,0.4,1.3h-3.9c-0.1-0.2-0.1-0.4-0.2-0.7c0-0.2-0.1-0.5-0.1-0.7c-0.6,0.6-1.3,1.1-2.2,1.3
			c-0.8,0.3-1.7,0.4-2.6,0.4c-0.7,0-1.3-0.1-1.9-0.3c-0.6-0.2-1.1-0.4-1.5-0.8c-0.4-0.3-0.8-0.8-1-1.3c-0.2-0.5-0.4-1.2-0.4-1.9
			c0-0.8,0.1-1.5,0.4-2c0.3-0.5,0.6-0.9,1.1-1.2c0.5-0.3,1-0.5,1.5-0.7c0.6-0.2,1.2-0.3,1.8-0.4c0.6-0.1,1.2-0.2,1.7-0.2
			c0.5-0.1,1-0.1,1.5-0.2c0.4-0.1,0.8-0.3,1-0.5c0.3-0.2,0.4-0.5,0.4-0.9c0-0.4-0.1-0.7-0.2-1c-0.1-0.2-0.3-0.4-0.5-0.6
			c-0.2-0.1-0.5-0.2-0.8-0.3c-0.3,0-0.6-0.1-1-0.1c-0.7,0-1.3,0.2-1.8,0.5c-0.4,0.3-0.7,0.9-0.8,1.6H211.2z M220.1,122.5
			c-0.2,0.1-0.4,0.3-0.6,0.3c-0.2,0.1-0.5,0.1-0.8,0.2c-0.3,0.1-0.6,0.1-0.9,0.1c-0.3,0-0.6,0.1-0.9,0.1c-0.3,0.1-0.6,0.1-0.9,0.2
			c-0.3,0.1-0.5,0.2-0.7,0.4c-0.2,0.2-0.4,0.4-0.5,0.6c-0.1,0.2-0.2,0.5-0.2,0.9c0,0.4,0.1,0.7,0.2,0.9c0.1,0.2,0.3,0.4,0.5,0.5
			c0.2,0.1,0.5,0.2,0.8,0.3c0.3,0.1,0.6,0.1,0.9,0.1c0.8,0,1.4-0.1,1.8-0.4c0.4-0.3,0.7-0.6,0.9-0.9c0.2-0.4,0.3-0.7,0.4-1.1
			c0-0.4,0.1-0.7,0.1-0.9V122.5z"/>
		<path class="st0" d="M227.1,109.9h3.9v19.5h-3.9V109.9z"/>
		<path class="st0" d="M233.6,122.4c0-1.1,0.2-2.1,0.5-3.1c0.3-0.9,0.8-1.7,1.5-2.3c0.6-0.6,1.4-1.1,2.3-1.5c0.9-0.4,1.9-0.5,3-0.5
			c1.1,0,2.1,0.2,3,0.5c0.9,0.4,1.7,0.9,2.3,1.5c0.6,0.6,1.1,1.4,1.5,2.3c0.3,0.9,0.5,1.9,0.5,3.1s-0.2,2.1-0.5,3.1
			c-0.3,0.9-0.8,1.7-1.5,2.3c-0.6,0.6-1.4,1.1-2.3,1.5c-0.9,0.4-1.9,0.5-3,0.5c-1.1,0-2.1-0.2-3-0.5c-0.9-0.4-1.7-0.9-2.3-1.5
			c-0.6-0.6-1.1-1.4-1.5-2.3C233.8,124.5,233.6,123.5,233.6,122.4z M237.5,122.4c0,0.6,0.1,1.1,0.2,1.6c0.1,0.5,0.3,1,0.6,1.4
			s0.6,0.8,1,1c0.4,0.3,1,0.4,1.6,0.4c0.7,0,1.2-0.1,1.6-0.4c0.4-0.3,0.8-0.6,1.1-1c0.3-0.4,0.4-0.9,0.6-1.4
			c0.1-0.5,0.2-1.1,0.2-1.6s-0.1-1.1-0.2-1.7c-0.1-0.5-0.3-1-0.6-1.4c-0.3-0.4-0.6-0.8-1.1-1c-0.4-0.3-1-0.4-1.6-0.4
			c-0.7,0-1.2,0.1-1.6,0.4c-0.4,0.3-0.8,0.6-1,1c-0.3,0.4-0.4,0.9-0.6,1.4C237.5,121.2,237.5,121.8,237.5,122.4z"/>
		<path class="st0" d="M250.7,115.3h3.7v2h0.1c0.5-0.8,1.1-1.4,1.9-1.8c0.8-0.4,1.6-0.6,2.4-0.6c1,0,1.9,0.1,2.5,0.4
			c0.7,0.3,1.2,0.7,1.6,1.2s0.6,1.1,0.8,1.8c0.2,0.7,0.2,1.5,0.2,2.4v8.7H260v-8c0-1.2-0.2-2-0.6-2.6c-0.4-0.6-1-0.9-1.9-0.9
			c-1.1,0-1.8,0.3-2.3,0.9c-0.5,0.6-0.7,1.7-0.7,3.1v7.4h-3.9V115.3z"/>
		<path class="st0" d="M270.1,123.3c0.1,1.2,0.4,2.1,1,2.7c0.6,0.6,1.4,0.9,2.5,0.9c0.8,0,1.5-0.2,2-0.6c0.6-0.4,0.9-0.8,1-1.2h3.4
			c-0.5,1.7-1.4,2.9-2.5,3.6c-1.1,0.7-2.5,1.1-4.1,1.1c-1.1,0-2.1-0.2-3-0.5c-0.9-0.4-1.6-0.9-2.3-1.5c-0.6-0.7-1.1-1.4-1.4-2.3
			c-0.3-0.9-0.5-1.9-0.5-3c0-1.1,0.2-2,0.5-2.9c0.3-0.9,0.8-1.7,1.5-2.4s1.4-1.2,2.3-1.6c0.9-0.4,1.9-0.6,2.9-0.6
			c1.2,0,2.2,0.2,3.1,0.7s1.6,1.1,2.2,1.9c0.6,0.8,1,1.7,1.2,2.7s0.3,2,0.3,3.1H270.1z M276.3,120.8c-0.2-1-0.5-1.7-1-2.2
			c-0.5-0.5-1.2-0.8-2.1-0.8c-0.6,0-1.1,0.1-1.5,0.3c-0.4,0.2-0.7,0.5-1,0.8c-0.2,0.3-0.4,0.6-0.5,1c-0.1,0.3-0.2,0.7-0.2,0.9H276.3
			z"/>
		<path class="st0" d="M282.7,125.2h4.3v4.2h-4.3V125.2z"/>
	</g>
</g>
</svg>
