<?xml version="1.0" encoding="UTF-8"?>
<svg width="1280px" height="916px" viewBox="0 0 1280 916" version="1.1" xmlns="http://www.w3.org/2000/svg" xmlns:xlink="http://www.w3.org/1999/xlink">
    <!-- Generator: Sketch 45.2 (43514) - http://www.bohemiancoding.com/sketch -->
    <title>placeholder</title>
    <desc>Created with Sketch.</desc>
    <defs></defs>
    <g id="Page-1" stroke="none" stroke-width="1" fill="none" fill-rule="evenodd">
        <g id="placeholder">
            <path d="M275.432,420.392 L259.304,420.392 L251.528,468.632 L248.072,392.6 L225.464,392.6 L231.944,497 L258.44,497 L267.368,443.864 L276.44,497 L302.936,497 L309.416,392.6 L286.808,392.6 L283.208,468.632 L275.432,420.392 Z M393.8,497 L393.8,481.448 L371.192,481.448 L371.192,419.528 L327.992,419.528 L327.992,435.08 L350.456,435.08 L350.456,481.448 L327.992,481.448 L327.992,497 L393.8,497 Z M350.456,392.6 L350.456,411.752 L371.192,411.752 L371.192,392.6 L350.456,392.6 Z M417.848,419.528 L417.848,435.224 L437.144,435.224 L437.144,481.448 L417.848,481.448 L417.848,497 L485.96,497 L485.96,481.448 L457.88,481.448 L457.88,457.4 C457.88,442.28 462.92,436.088 476.024,436.088 L490.856,436.088 L490.856,419.528 L479.048,419.528 C466.808,419.528 460.76,426.008 457.592,432.632 L457.592,419.528 L417.848,419.528 Z M582.728,463.592 L529.88,463.592 C530.6,477.848 538.376,484.184 547.016,484.184 C555.224,484.184 560.12,480.008 561.704,472.808 L581.432,472.808 C579.272,485.912 567.608,498.872 546.728,498.872 C522.536,498.872 510.008,482.744 510.008,458.984 C510.008,434.216 523.4,417.8 546.44,417.8 C569.768,417.8 583.448,435.08 582.728,463.592 Z M546.152,432.632 C539.528,432.632 531.032,437.384 529.88,450.488 L563,450.488 C562.568,436.376 554.36,432.632 546.152,432.632 Z M621.032,419.528 L598.568,419.528 L598.568,435.08 L621.032,435.08 L621.032,497 L641.768,497 L641.768,435.08 L674.456,435.08 L674.456,419.528 L641.768,419.528 L641.768,415.208 C641.768,409.16 643.496,408.008 652.136,408.008 L674.456,408.008 L674.456,392.6 L649.544,392.6 C631.112,392.6 621.032,395.624 621.032,415.352 L621.032,419.528 Z M696.92,419.528 L696.92,435.224 L716.216,435.224 L716.216,481.448 L696.92,481.448 L696.92,497 L765.032,497 L765.032,481.448 L736.952,481.448 L736.952,457.4 C736.952,442.28 741.992,436.088 755.096,436.088 L769.928,436.088 L769.928,419.528 L758.12,419.528 C745.88,419.528 739.832,426.008 736.664,432.632 L736.664,419.528 L696.92,419.528 Z M839.768,487.064 C834.296,495.272 826.376,498.872 815.144,498.872 C801.896,498.872 788.936,490.376 788.936,476.264 C788.936,456.536 811.544,452.504 837.608,449.192 L837.608,447.464 C837.608,435.512 832.424,431.48 823.928,431.48 C815.432,431.48 810.104,435.512 809.528,444.008 L790.952,444.008 C792.392,428.744 804.92,417.512 824.648,417.512 C843.8,417.512 857.48,425.288 857.48,451.496 C857.48,453.944 857.192,464.312 857.192,471.368 C857.192,492.68 858.056,494.696 858.776,497 L839.912,497 L839.768,487.064 Z M838.184,463.88 L838.184,461.864 C818.168,463.88 809.384,466.184 809.384,475.4 C809.384,481.16 813.272,484.76 820.76,484.76 C833.72,484.76 838.184,476.408 838.184,463.88 Z M928.04,497 L928.04,449.768 C928.04,437.528 929.048,433.496 933.224,433.496 C936.824,433.496 937.4,436.088 937.4,445.16 L937.4,497 L957.56,497 L957.56,442.136 C957.56,423.56 950.36,417.8 940.136,417.8 C935.384,417.8 929.048,420.392 925.736,426.44 C923.288,420.824 918.824,417.8 912.776,417.8 C907.16,417.8 901.976,420.968 899.384,425.432 L899.384,419.528 L879.224,419.528 L879.224,497 L899.384,497 L899.384,449.768 C899.384,437.528 900.392,433.496 904.568,433.496 C908.168,433.496 908.744,436.088 908.744,445.16 L908.744,497 L928.04,497 Z M1047.848,463.592 L995,463.592 C995.72,477.848 1003.496,484.184 1012.136,484.184 C1020.344,484.184 1025.24,480.008 1026.824,472.808 L1046.552,472.808 C1044.392,485.912 1032.728,498.872 1011.848,498.872 C987.656,498.872 975.128,482.744 975.128,458.984 C975.128,434.216 988.52,417.8 1011.56,417.8 C1034.888,417.8 1048.568,435.08 1047.848,463.592 Z M1011.272,432.632 C1004.648,432.632 996.152,437.384 995,450.488 L1028.12,450.488 C1027.688,436.376 1019.48,432.632 1011.272,432.632 Z" id="Wireframe" fill="#FFFFFF"></path>
            <path d="M481.988028,566 L52.0520415,871.462007 L50.0140483,872.909965 L52.9099654,876.985952 L54.9479585,875.537993 L490.620872,566 L481.988028,566 Z M786.006763,350 L1254.05204,17.4620068 L1256.09003,16.0140483 L1258.98595,20.0900346 L1256.94796,21.5379932 L794.639607,350 L786.006763,350 Z" id="Combined-Shape" stroke="#FFFFFF" stroke-width="5" stroke-linecap="square"></path>
        </g>
    </g>
</svg>