<?xml version="1.0" encoding="utf-8"?>
<!-- Generator: Adobe Illustrator 21.1.0, SVG Export Plug-In . SVG Version: 6.00 Build 0)  -->
<svg version="1.1" id="Ebene_1" xmlns="http://www.w3.org/2000/svg" xmlns:xlink="http://www.w3.org/1999/xlink" x="0px" y="0px"
	 viewBox="0 0 427.5 510.9" style="enable-background:new 0 0 427.5 510.9;" xml:space="preserve">
<style type="text/css">
	.st0{fill:#3F3F3F;}
	.st1{fill:#E5E5E5;}
	.st2{fill:#BFBFBF;}
	.st3{fill:#808080;}
	.st4{fill:#548ABF;}
	.st5{fill:#99A6CF;}
	.st6{fill:#FF0000;}
	.st7{fill:#0C419A;}
</style>
<title>logo-schrift normal</title>
<g id="Ebene_2">
	<g id="Ebene_1-2">
		<path class="st0" d="M61.8,393.4l-28.4,3c6.6,19.4,27.7,29.9,47.1,23.3c19.4-6.6,29.9-27.7,23.3-47.1c-0.2-0.5-0.4-1.1-0.6-1.6
			H72.8c-0.2,0-0.4-0.2-0.3-0.5c0-0.2,0.2-0.3,0.3-0.3l28.8-3C92,349,69.5,342.1,51.3,351.7c-14.8,7.8-22.6,24.6-18.9,41h29.4
			c0.2,0.1,0.3,0.3,0.3,0.5C62,393.3,62,393.4,61.8,393.4z"/>
		<path class="st1" d="M104.3,404.1l-28.4,3c6.6,19.4,27.7,29.9,47.1,23.3s29.9-27.7,23.3-47.1c-0.2-0.5-0.4-1.1-0.6-1.6h-30.5
			c-0.2,0-0.4-0.2-0.3-0.5c0-0.2,0.2-0.3,0.3-0.3l28.8-3c-9.6-18.2-32.1-25.1-50.2-15.5c-14.8,7.8-22.6,24.6-18.9,41h29.4
			c0.2,0.1,0.3,0.3,0.2,0.5C104.5,403.9,104.4,404,104.3,404.1z"/>
		<path class="st2" d="M101.5,359.1l-28.4,3c7,19.3,28.4,29.2,47.7,22.2S150,356,143,336.7l0,0h-30.5c-0.2,0-0.4-0.2-0.3-0.5
			c0-0.2,0.2-0.3,0.3-0.3l28.7-3c-9.6-18.2-32.1-25.1-50.2-15.5c-14.8,7.8-22.6,24.6-18.9,41h29.4
			C101.6,358.5,101.5,358.9,101.5,359.1z"/>
		<path class="st3" d="M69.8,348.3l-28.4,3c6.6,19.4,27.7,29.9,47.1,23.3c19.4-6.6,29.9-27.7,23.3-47.1c-0.2-0.5-0.4-1.1-0.6-1.6
			H80.8c-0.2,0-0.4-0.2-0.3-0.5c0-0.2,0.2-0.3,0.3-0.3l28.8-3c-9.6-18.2-32.1-25.1-50.2-15.5c-14.8,7.8-22.6,24.6-18.9,41h29.4
			c0.2,0.1,0.3,0.3,0.3,0.5C70,348.2,69.9,348.3,69.8,348.3z"/>
		<path class="st0" d="M309.6,394.1l-28.4,3c6.6,19.4,27.7,29.9,47.1,23.3c19.4-6.6,29.9-27.7,23.3-47.1c-0.2-0.5-0.4-1.1-0.6-1.6
			h-30.5c-0.2,0-0.4-0.2-0.3-0.5c0-0.2,0.2-0.3,0.3-0.3l28.8-3c-9.6-18.2-32.1-25.1-50.2-15.5c-14.8,7.8-22.6,24.6-18.9,41h29.4
			c0.2,0.1,0.3,0.3,0.2,0.5C309.9,393.9,309.8,394,309.6,394.1z"/>
		<path class="st1" d="M352.1,404.7l-28.4,3c6.6,19.4,27.7,29.9,47.1,23.3c19.4-6.6,29.9-27.7,23.3-47.1c-0.2-0.5-0.4-1.1-0.6-1.6
			h-30.5c-0.2,0-0.4-0.2-0.3-0.5c0-0.2,0.2-0.3,0.3-0.3l28.8-3c-9.6-18.2-32.1-25.1-50.2-15.5c-14.8,7.8-22.6,24.6-18.9,41h29.4
			c0.2,0.1,0.3,0.4,0.2,0.6C352.3,404.6,352.2,404.6,352.1,404.7z"/>
		<path class="st2" d="M349.3,359.8l-28.4,3c6.6,19.4,27.7,29.9,47.1,23.3c19.4-6.6,29.9-27.7,23.3-47.1c-0.2-0.5-0.4-1.1-0.6-1.6
			h-30.5c-0.2,0-0.4-0.2-0.3-0.5c0-0.2,0.2-0.3,0.3-0.3l28.8-3c-9.5-18.2-32-25.2-50.2-15.7c-15,7.8-22.8,24.7-19,41.2h29.4
			c0.2,0.1,0.3,0.3,0.3,0.5C349.5,359.6,349.4,359.7,349.3,359.8z"/>
		<path class="st3" d="M317.6,348.9l-28.4,3c6.2,19.6,27.1,30.4,46.7,24.2c19.6-6.2,30.4-27.1,24.2-46.7c-0.3-1-0.7-2-1.1-3h-30.4
			c-0.2,0-0.4-0.2-0.3-0.5c0-0.2,0.2-0.3,0.3-0.3l28.8-3c-9.6-18.2-32.1-25.1-50.2-15.5c-14.8,7.8-22.6,24.6-18.9,41h29.4
			c0.2,0.1,0.3,0.3,0.3,0.5C317.8,348.8,317.7,348.9,317.6,348.9z"/>
		<path d="M310.5,148l-11.8,55.4h-16l4.4-20.9h-19l-4.4,20.9h-16l11.8-55.4h16l-4.4,20.7h19l4.4-20.7H310.5z"/>
		<path d="M359.9,166.8c-6.6-4.5-13.4-6.3-18.2-6.3c-4,0-6.7,1-6.7,2.8s1.9,3.2,4.7,4l7.9,2.3c9.2,2.6,17,6.9,17,16
			c0,12.4-11.2,18.6-24,18.6c-12.3,0-21.5-4-27.7-8.9l8.8-12.1c5.5,4.8,12.5,7.4,19.8,7.3c3.7,0,6.7-1.1,6.7-3.3s-3.1-3.6-7.9-4.9
			l-6-1.8c-7.7-2.2-15-7.2-15-16.1c0-10.3,8.6-18,23.1-18c9.2,0,18.1,2.7,25.7,7.8L359.9,166.8z"/>
		<path d="M404.8,148c13.4,0,22.8,3.3,22.8,14.7c0,17.2-13.4,22.7-29.9,22.7h-5.4l-3.8,18h-16l11.8-55.4H404.8z M395,172.4h6.9
			c4.2,0,8.6-1.5,8.6-6.6c0-3.1-2.2-4.9-6.2-4.9h-6.9L395,172.4z"/>
		<path d="M310.5,454.5l-11.8,55.4h-16l4.4-20.9h-19l-4.4,20.9h-16l11.8-55.4h16l-4.4,20.7h19l4.4-20.7H310.5z"/>
		<path d="M359.9,473.3c-6.6-4.5-13.4-6.3-18.2-6.3c-4,0-6.7,1-6.7,2.8s1.9,3.2,4.7,4l7.9,2.3c9.2,2.6,17,6.9,17,16
			c0,12.4-11.2,18.6-24,18.6c-12.3,0-21.5-4-27.7-8.9l8.8-12.1c5.5,4.8,12.5,7.4,19.8,7.3c3.7,0,6.7-1.1,6.7-3.3s-3.1-3.6-7.9-4.9
			l-6-1.8c-7.7-2.2-15-7.2-15-16.1c0-10.3,8.6-18,23.1-18c9.2,0,18.1,2.8,25.7,8L359.9,473.3z"/>
		<path d="M404.8,454.5c13.4,0,22.8,3.3,22.8,14.7c0,17.2-13.4,22.7-29.9,22.7h-5.4l-3.8,18h-16l11.8-55.4L404.8,454.5z M395,478.9
			h6.9c4.2,0,8.6-1.5,8.6-6.6c0-3.1-2.2-4.9-6.2-4.9h-6.9L395,478.9z"/>
		<path d="M62.7,453.2L51,508.6H35l4.4-20.9h-19L16,508.6H0l11.8-55.4h16l-4.4,20.7h19l4.3-20.7H62.7z"/>
		<path d="M112.1,472c-6.7-4.5-13.4-6.3-18.2-6.3c-4,0-6.7,1-6.7,2.8s1.9,3.2,4.7,4l7.9,2.3c9.2,2.6,17,6.9,17,16
			c0,12.4-11.2,18.6-24,18.6c-12.3,0-21.5-4-27.7-8.9l8.8-12.1c5.5,4.8,12.5,7.4,19.8,7.3c3.7,0,6.7-1.1,6.7-3.3s-3.1-3.6-7.9-4.9
			l-6-1.8c-7.7-2.2-15-7.2-15-16.1c0-10.3,8.6-18,23.2-18c9.2,0,18.1,2.7,25.7,7.8L112.1,472z"/>
		<path d="M157,453.2c13.4,0,22.8,3.3,22.8,14.7c0,17.2-13.4,22.7-29.9,22.7h-5.4l-3.8,18h-16l11.8-55.4L157,453.2z M147.2,477.6
			h6.9c4.2,0,8.6-1.5,8.6-6.6c0-3.1-2.2-4.9-6.2-4.9h-6.9L147.2,477.6z"/>
		<path class="st4" d="M307.5,91.2l-28.4,3c6.6,19.4,27.7,29.9,47.1,23.3c19.4-6.6,29.9-27.7,23.3-47.1c-0.2-0.5-0.4-1.1-0.6-1.6
			h-30.5c-0.2,0-0.4-0.2-0.3-0.5c0-0.2,0.2-0.3,0.3-0.3l28.8-3c-9.5-18.2-32-25.2-50.2-15.6c-14.9,7.8-22.7,24.7-19,41.1h29.4
			c0.2,0,0.4,0.2,0.4,0.5C307.8,91.1,307.6,91.2,307.5,91.2z"/>
		<path class="st5" d="M349.9,101.9l-28.4,3c6.6,19.4,27.7,29.9,47.1,23.3c19.4-6.6,29.9-27.7,23.3-47.1c-0.2-0.5-0.4-1.1-0.6-1.6
			h-30.5c-0.2,0-0.4-0.2-0.3-0.5c0-0.2,0.2-0.3,0.3-0.3l28.8-3c-9.6-18.2-32.1-25.1-50.2-15.5c-14.8,7.8-22.6,24.6-18.9,41h29.4
			c0.2,0.1,0.3,0.3,0.2,0.5C350.1,101.7,350,101.8,349.9,101.9z"/>
		<path class="st6" d="M347.1,56.9l-28.4,3c6.6,19.4,27.7,29.8,47.2,23.2c19.4-6.6,29.8-27.7,23.2-47.2c-0.2-0.5-0.4-1-0.5-1.5
			h-30.5c-0.2,0-0.4-0.2-0.3-0.5c0-0.2,0.2-0.3,0.3-0.3l28.8-3c-9.6-18.2-32.1-25.1-50.2-15.5c-14.8,7.8-22.6,24.6-18.9,41h29.4
			c0.2,0.1,0.3,0.3,0.3,0.5C347.4,56.8,347.3,56.9,347.1,56.9z"/>
		<path class="st7" d="M315.3,46l-28.4,2.5c6.2,19.6,27.1,30.4,46.7,24.2c19.6-6.2,30.4-27.1,24.2-46.7c-0.2-0.6-0.4-1.2-0.6-1.7
			l-30.5-0.5c-0.2,0-0.4-0.2-0.3-0.5c0-0.2,0.2-0.3,0.3-0.3l28.8-2.5C346.1,2.1,323.8-5.3,305.5,4c-15,7.6-23,24.3-19.6,40.7
			l29.4,0.5c0.2,0,0.4,0.2,0.3,0.5C315.6,45.8,315.4,46,315.3,46z"/>
		<path d="M62.7,148L51,203.4H35l4.4-20.9h-19L16,203.4H0L11.8,148h16l-4.4,20.7h19l4.3-20.7H62.7z"/>
		<path d="M112.1,166.8c-6.7-4.5-13.4-6.3-18.2-6.3c-4,0-6.7,1-6.7,2.8s1.9,3.2,4.7,4l7.9,2.3c9.2,2.6,17,6.9,17,16
			c0,12.4-11.2,18.6-24,18.6c-12.3,0-21.5-4-27.7-8.9l8.8-12.1c5.5,4.8,12.5,7.4,19.8,7.3c3.7,0,6.7-1.1,6.7-3.3s-3.1-3.6-7.9-4.9
			l-6-1.8c-7.7-2.2-15-7.2-15-16.1c0-10.3,8.6-18,23.2-18c9.2,0,18.1,2.7,25.7,7.8L112.1,166.8z"/>
		<path d="M157,148c13.4,0,22.8,3.3,22.8,14.7c0,17.2-13.4,22.7-29.9,22.7h-5.4l-3.8,18h-16l11.8-55.4H157z M147.2,172.4h6.9
			c4.2,0,8.6-1.5,8.6-6.6c0-3.1-2.2-4.9-6.2-4.9h-6.9L147.2,172.4z"/>
		<path class="st4" d="M59.6,91.2l-28.4,3c6.6,19.4,27.7,29.9,47.1,23.3c19.4-6.6,29.9-27.7,23.3-47.1c-0.2-0.5-0.4-1.1-0.6-1.6
			H70.6c-0.2,0-0.4-0.2-0.3-0.5c0-0.2,0.2-0.3,0.3-0.3l28.8-3c-9.5-18.2-32-25.2-50.2-15.7c-14.9,7.8-22.8,24.7-19,41.2h29.4
			c0.2,0,0.4,0.2,0.4,0.4C59.9,91.1,59.8,91.2,59.6,91.2z"/>
		<path class="st5" d="M102.1,101.9l-28.4,3c6.6,19.4,27.7,29.9,47.1,23.3c19.4-6.6,29.9-27.7,23.3-47.1c-0.2-0.5-0.4-1.1-0.6-1.6
			h-30.5c-0.2,0-0.4-0.2-0.3-0.5c0-0.2,0.2-0.3,0.3-0.3l28.8-3c-9.6-18.2-32.1-25.1-50.2-15.5c-14.8,7.8-22.6,24.6-18.9,41h29.4
			c0.2,0.1,0.3,0.3,0.2,0.5C102.3,101.7,102.2,101.8,102.1,101.9z"/>
		<path class="st6" d="M99.3,56.9l-28.4,3c6.6,19.4,27.7,29.8,47.2,23.2s29.8-27.7,23.2-47.2c-0.2-0.5-0.4-1-0.5-1.5h-30.5
			c-0.2,0-0.4-0.2-0.3-0.5c0-0.2,0.2-0.3,0.3-0.3l28.8-3c-9.5-18.2-32-25.2-50.2-15.7c-15,7.8-22.8,24.7-19,41.2h29.4
			c0.2,0,0.4,0.2,0.4,0.4C99.6,56.8,99.5,56.9,99.3,56.9z"/>
		<path class="st7" d="M67.4,46L39,48.5c6.2,19.6,27.1,30.4,46.7,24.2s30.4-27.1,24.2-46.7c-0.2-0.6-0.4-1.2-0.6-1.7l-30.4-0.5
			c-0.2,0-0.4-0.2-0.3-0.5c0-0.2,0.2-0.3,0.3-0.3l28.8-2.5C98.4,2.1,76-5.3,57.7,3.9c-15,7.6-23.1,24.3-19.7,40.8l29.4,0.5
			c0.2,0,0.4,0.3,0.3,0.5C67.7,45.8,67.6,46,67.4,46z"/>
	</g>
</g>
</svg>
