<?xml version="1.0" encoding="utf-8"?>
<!-- Generator: Adobe Illustrator 21.1.0, SVG Export Plug-In . SVG Version: 6.00 Build 0)  -->
<svg version="1.1" id="Ebene_1" xmlns="http://www.w3.org/2000/svg" xmlns:xlink="http://www.w3.org/1999/xlink" x="0px" y="0px"
	 viewBox="0 0 453.1 447.3" style="enable-background:new 0 0 453.1 447.3;" xml:space="preserve">
<style type="text/css">
	.st0{fill:#3F3F3F;}
	.st1{fill:#E5E5E5;}
	.st2{fill:#BFBFBF;}
	.st3{fill:#808080;}
	.st4{fill:#548ABF;}
	.st5{fill:#99A6CF;}
	.st6{fill:#FF0000;}
	.st7{fill:#0C419A;}
</style>
<rect y="-0.2" width="453.1" height="447.5"/>
<title>Logos</title>
<g id="Ebene_2">
	<g id="Ebene_1-2">
		<path class="st0" d="M46.7,387.6L3,392.2c10.8,29.7,43.7,45,73.4,34.1s45-43.7,34.1-73.4l0,0H63.6c-0.3,0-0.6-0.3-0.6-0.7
			c0-0.3,0.2-0.5,0.5-0.6l44.2-4.7C93,319,58.4,308.2,30.4,323C7.5,335.1-4.4,361,1.3,386.2h45.3c0.3,0,0.6,0.3,0.6,0.7
			C47.2,387.3,47,387.5,46.7,387.6z"/>
		<path class="st1" d="M112.1,403.9l-43.7,4.6c10.2,29.9,42.8,45.8,72.7,35.6c29.9-10.2,45.8-42.8,35.6-72.7
			c-0.2-0.7-0.5-1.4-0.8-2.1H129c-0.3,0-0.6-0.3-0.6-0.7c0-0.3,0.2-0.5,0.5-0.6l44.2-4.7c-14.7-28-49.3-38.7-77.3-24
			c-22.9,12-34.8,38-29.2,63.2H112c0.3,0,0.6,0.3,0.6,0.6C112.6,403.6,112.4,403.9,112.1,403.9z"/>
		<path class="st2" d="M107.8,334.8l-43.7,4.6c10.2,29.9,42.8,45.8,72.7,35.6s45.8-42.8,35.6-72.7c-0.2-0.7-0.5-1.4-0.8-2.1h-46.9
			c-0.3,0-0.6-0.3-0.6-0.7c0-0.3,0.2-0.5,0.5-0.6l44.2-4.7c-14.7-27.9-49.3-38.7-77.3-23.9c-22.9,12.1-34.8,37.9-29.1,63.2h45.3
			c0.3,0,0.6,0.4,0.6,0.7C108.3,334.5,108.1,334.7,107.8,334.8z"/>
		<path class="st3" d="M59,318.1l-43.7,4.6c10.2,29.9,42.8,45.8,72.7,35.6c29.9-10.2,45.8-42.8,35.6-72.7c-0.2-0.7-0.5-1.4-0.8-2.1
			H75.9c-0.3,0-0.6-0.3-0.6-0.7c0-0.3,0.2-0.5,0.5-0.6l44.2-4.7c-14.7-27.9-49.3-38.7-77.3-23.9C19.9,265.8,8,291.7,13.6,316.9h45.3
			c0.3,0,0.6,0.4,0.6,0.7C59.5,317.9,59.3,318.1,59,318.1z"/>
		<path class="st0" d="M260.7,417.4l-21.9,2.3c5.2,14.9,21.5,22.8,36.5,17.5c14.9-5.2,22.8-21.5,17.5-36.5c-0.1-0.2-0.2-0.4-0.2-0.6
			h-23.4c-0.2,0-0.3-0.1-0.3-0.3c0-0.2,0.1-0.3,0.3-0.3l22.1-2.3c-7.3-14-24.5-19.5-38.6-12.2c-11.6,6-17.6,19.1-14.7,31.8h22.6
			c0.2,0,0.3,0.1,0.3,0.3C261,417.3,260.9,417.4,260.7,417.4z"/>
		<path class="st1" d="M293.4,425.6l-21.9,2.3c5.2,14.9,21.5,22.8,36.5,17.5c14.9-5.2,22.8-21.5,17.5-36.5c-0.1-0.2-0.2-0.4-0.2-0.6
			h-23.4c-0.2,0-0.3-0.1-0.3-0.3c0-0.2,0.1-0.3,0.3-0.3l22.1-2.3c-7.3-14-24.6-19.4-38.6-12.1c-11.5,6-17.5,19-14.6,31.7h22.6
			c0.2,0,0.3,0.1,0.3,0.3S293.5,425.6,293.4,425.6z"/>
		<path class="st2" d="M291.2,391l-21.9,2.3c5.2,14.9,21.5,22.8,36.5,17.5c14.9-5.2,22.8-21.5,17.5-36.5c-0.1-0.2-0.2-0.4-0.2-0.6
			h-23.4c-0.2,0-0.3-0.1-0.3-0.3c0-0.2,0.1-0.3,0.3-0.3l22.1-2.3c-7.4-14-24.6-19.3-38.6-12c-11.5,6-17.4,19-14.6,31.6h22.6
			c0.2,0,0.3,0.2,0.3,0.4C291.5,390.9,291.4,391,291.2,391z"/>
		<path class="st3" d="M266.8,382.7L245,385c5.2,14.9,21.5,22.8,36.5,17.5c14.9-5.2,22.8-21.5,17.5-36.5c-0.1-0.2-0.2-0.4-0.2-0.6
			h-23.5c-0.2,0-0.3-0.1-0.3-0.3c0-0.2,0.1-0.3,0.3-0.3l22.1-2.3c-7.4-14-24.6-19.3-38.6-12c-11.5,6-17.4,19-14.6,31.6h22.6
			c0.2,0,0.3,0.1,0.3,0.3C267.1,382.6,267,382.7,266.8,382.7z"/>
		<path class="st0" d="M418.1,432.4l-10.9,1.1c2.6,7.5,10.8,11.4,18.2,8.8s11.4-10.8,8.8-18.2c0-0.1-0.1-0.2-0.1-0.3h-11.7
			c-0.1,0-0.1-0.1-0.1-0.2s0.1-0.1,0.1-0.1l11.1-1.2c-3.7-7-12.3-9.7-19.3-6c-5.7,3-8.7,9.5-7.3,15.8h11.3c0.1,0,0.2,0.1,0.2,0.2
			C418.3,432.3,418.2,432.4,418.1,432.4L418.1,432.4z"/>
		<path class="st1" d="M434.5,436.5l-10.9,1.1c2.6,7.5,10.8,11.4,18.2,8.8s11.4-10.8,8.8-18.2c0-0.1-0.1-0.2-0.1-0.3h-11.7
			c-0.1,0-0.1-0.1-0.1-0.2s0.1-0.1,0.1-0.1l11.1-1.2c-3.7-7-12.3-9.7-19.3-6c-5.7,3-8.7,9.5-7.3,15.8h11.3c0.1,0,0.2,0.1,0.2,0.2
			C434.7,436.4,434.6,436.5,434.5,436.5L434.5,436.5z"/>
		<path class="st2" d="M433.4,419.2l-10.9,1.1c2.6,7.5,10.8,11.4,18.2,8.8s11.4-10.8,8.8-18.2c0-0.1-0.1-0.2-0.1-0.3h-11.7
			c-0.1,0-0.1-0.1-0.1-0.2s0.1-0.1,0.1-0.1l11.1-1.2c-3.7-7-12.3-9.7-19.3-6c-5.7,3-8.7,9.5-7.3,15.8h11.3c0.1,0,0.2,0.1,0.2,0.2
			C433.6,419.1,433.5,419.2,433.4,419.2z"/>
		<path class="st3" d="M421.2,415l-10.9,1.1c2.6,7.5,10.8,11.4,18.2,8.8s11.4-10.8,8.8-18.2c0-0.1-0.1-0.2-0.1-0.3h-11.7
			c-0.1,0-0.1-0.1-0.1-0.2s0.1-0.1,0.1-0.1l11.1-1.2c-3.7-7-12.3-9.7-19.3-6c-5.7,3-8.7,9.5-7.3,15.8h11.3c0.1,0,0.2,0.1,0.2,0.2
			S421.3,415,421.2,415z"/>
		<path class="st4" d="M53.4,140.4L9.7,145c10.3,29.9,42.8,45.7,72.7,35.4s45.7-42.8,35.4-72.7c-0.2-0.6-0.4-1.3-0.7-1.9H70.3
			c-0.3,0-0.6-0.3-0.6-0.7c0-0.3,0.2-0.5,0.5-0.6l44.2-4.7C99.8,72,65.2,61.3,37.2,76C14.4,88.1,2.4,114,8.1,139.2h45.3
			c0.3,0,0.6,0.4,0.6,0.7C53.9,140.2,53.7,140.4,53.4,140.4z"/>
		<path class="st5" d="M118.8,156.8l-43.7,4.6c10.2,29.9,42.8,45.8,72.7,35.6c29.9-10.2,45.8-42.8,35.6-72.7
			c-0.2-0.7-0.5-1.4-0.8-2.1h-46.9c-0.3,0-0.6-0.3-0.6-0.7c0-0.3,0.2-0.5,0.5-0.6l44.2-4.7c-14.7-27.9-49.3-38.7-77.3-23.9
			c-22.9,12.1-34.8,37.9-29.1,63.2h45.3c0.3,0,0.6,0.4,0.6,0.7C119.3,156.5,119.1,156.7,118.8,156.8z"/>
		<path class="st6" d="M114.5,87.6l-43.7,4.6c10.3,29.9,42.8,45.7,72.7,35.4S189.3,84.9,179,55c-0.2-0.6-0.4-1.3-0.7-1.9h-46.9
			c-0.3,0-0.6-0.3-0.6-0.7c0-0.3,0.2-0.5,0.5-0.6l44.2-4.7c-14.7-27.9-49.3-38.6-77.3-23.9c-22.8,12.1-34.7,38-29,63.2h45.3
			c0.3,0,0.6,0.3,0.6,0.7C115,87.4,114.8,87.6,114.5,87.6z"/>
		<path class="st7" d="M65.5,70.8l-43.8,3.9c9.7,30.1,41.9,46.6,72,36.9s46.6-41.9,36.9-72c-0.2-0.7-0.5-1.5-0.8-2.2l-46.9-0.8
			c-0.3,0-0.6-0.4-0.5-0.7c0-0.3,0.3-0.5,0.5-0.5l44.3-3.9C113.1,3.2,78.7-8.3,50.5,5.9C27.2,17.5,14.8,43.4,20.1,68.8l45.3,0.8
			c0.3,0,0.6,0.3,0.6,0.7C66,70.5,65.7,70.8,65.5,70.8z"/>
		<path class="st4" d="M260.7,170.3l-21.9,2.3c5.3,14.9,21.6,22.7,36.5,17.5c14.9-5.3,22.7-21.6,17.5-36.5c-0.1-0.2-0.1-0.4-0.2-0.6
			h-23.4c-0.2,0-0.3-0.1-0.3-0.3s0.1-0.3,0.3-0.3l22.1-2.3c-7.3-14-24.5-19.5-38.6-12.2c-11.6,6-17.7,19.1-14.7,31.9h22.6
			c0.2,0,0.3,0.1,0.3,0.3C261,170.1,260.9,170.3,260.7,170.3z"/>
		<path class="st5" d="M293.4,178.5l-21.9,2.3c5.1,15,21.3,23,36.3,17.9s23-21.3,17.9-36.3c-0.1-0.4-0.3-0.8-0.4-1.2h-23.4
			c-0.2,0-0.3-0.1-0.3-0.3s0.1-0.3,0.3-0.3l22.1-2.3c-7.4-14-24.6-19.3-38.6-12c-11.5,6-17.4,19-14.6,31.6h22.6
			c0.2,0,0.3,0.2,0.3,0.4C293.6,178.3,293.5,178.4,293.4,178.5z"/>
		<path class="st6" d="M291.2,143.9l-21.9,2.3c5.1,15,21.3,23,36.3,17.9s23-21.3,17.9-36.3c-0.1-0.4-0.3-0.8-0.4-1.2h-23.4
			c-0.2,0-0.3-0.1-0.3-0.3c0-0.2,0.1-0.3,0.3-0.3l22.1-2.3c-7.4-14-24.6-19.3-38.6-12c-11.5,6-17.4,19-14.6,31.6h22.6
			c0.2,0,0.3,0.2,0.3,0.4C291.5,143.8,291.4,143.9,291.2,143.9z"/>
		<path class="st7" d="M266.7,135.5l-21.9,1.9c4.9,15,21,23.3,36,18.4c15-4.9,23.3-21,18.4-36c-0.1-0.3-0.2-0.7-0.4-1l-23.4-0.4
			c-0.2,0-0.3-0.1-0.3-0.3c0-0.2,0.1-0.3,0.3-0.3l22.2-2c-7-14.2-24.1-20-38.3-13c-11.8,5.8-18.1,18.9-15.3,31.7l22.6,0.4
			c0.2,0,0.3,0.1,0.3,0.3C267,135.3,266.9,135.5,266.7,135.5z"/>
		<path class="st4" d="M418.1,185.2l-10.9,1.1c2.6,7.5,10.8,11.4,18.2,8.8s11.4-10.8,8.8-18.2c0-0.1-0.1-0.2-0.1-0.3h-11.7
			c-0.1,0-0.1-0.1-0.1-0.2c0-0.1,0.1-0.1,0.1-0.1l11.1-1.2c-3.7-7-12.3-9.7-19.3-6c-5.7,3-8.7,9.5-7.3,15.8h11.3
			c0.1,0,0.2,0.1,0.2,0.2C418.3,185.2,418.2,185.2,418.1,185.2z"/>
		<path class="st5" d="M434.5,189.3l-10.9,1.1c2.6,7.5,10.8,11.4,18.2,8.8s11.4-10.8,8.8-18.2c0-0.1-0.1-0.2-0.1-0.3h-11.7
			c-0.1,0-0.1-0.1-0.1-0.2c0-0.1,0.1-0.1,0.1-0.1l11.1-1.2c-3.7-7-12.3-9.7-19.3-6c-5.7,3-8.7,9.5-7.3,15.8h11.3
			c0.1,0,0.2,0.1,0.2,0.2C434.6,189.2,434.6,189.3,434.5,189.3z"/>
		<path class="st6" d="M433.4,172l-10.9,1.1c2.6,7.5,10.8,11.4,18.2,8.8s11.4-10.8,8.8-18.2c0-0.1-0.1-0.2-0.1-0.3h-11.7
			c-0.1,0-0.1-0.1-0.1-0.2c0-0.1,0.1-0.1,0.1-0.1l11.1-1.2c-3.7-7-12.3-9.7-19.3-6c-5.7,3-8.7,9.5-7.3,15.8h11.3
			c0.1,0,0.2,0.1,0.2,0.1C433.6,171.9,433.5,172,433.4,172z"/>
		<path class="st7" d="M421.2,167.8l-10.9,1c2.2,7.6,10.2,11.9,17.7,9.7c7.6-2.2,11.9-10.2,9.7-17.7c-0.1-0.4-0.3-0.9-0.5-1.3
			l-11.7-0.2c-0.1,0-0.1-0.1-0.1-0.2c0-0.1,0.1-0.1,0.1-0.1l11.1-1c-3.6-7.1-12.2-9.9-19.2-6.3c-5.8,2.9-8.9,9.3-7.6,15.7l11.3,0.2
			C421.2,167.6,421.2,167.7,421.2,167.8L421.2,167.8z"/>
	</g>
</g>
</svg>
